<?xml version="1.0" encoding="utf-8"?>
<!-- Generator: Adobe Illustrator 27.7.0, SVG Export Plug-In . SVG Version: 6.00 Build 0)  -->
<svg version="1.1" id="Layer_1" xmlns="http://www.w3.org/2000/svg" xmlns:xlink="http://www.w3.org/1999/xlink" x="0px" y="0px"
	 viewBox="0 0 340 110" style="enable-background:new 0 0 340 110;" xml:space="preserve">
<style type="text/css">
	.st0{fill:#0AADEB;}
	.st1{fill:#0E141F;}
	.st2{fill:#040810;}
</style>
<path class="st0" d="M73.1,72.1c-1.7,2.8-3.4,5.7-5.2,8.4c-6.9,10.5-15,20.2-24.2,28.8c-0.9,0.8-1.3,0.9-2.3,0
	c-6.4-6.1-12.4-12.6-17.8-19.7c-4-5.1-7.6-10.5-10.8-16.2c-0.8-1.4-1.4-2.8-2.3-4.2c-0.4-0.8-0.1-1.1,0.5-1.2c2.2-0.6,4.4-1.4,6.7-2
	c0.8-0.2,1.1,0,1.4,0.6c4.4,8.2,9.7,15.9,15.8,23c1.6,1.9,3.1,3.8,4.7,5.7c0.4,0.5,1,1.3,1.5,1.8c1,1.2,1.5,1.2,2.6,0
	c2.6-3,5.2-6,7.8-9c4-4.8,7.7-9.9,11-15.3c1-1.7,2-3.3,2.9-5.1c0.4-0.9,1-1,1.8-0.6c2,0.9,4,1.7,6,2.6
	C74.5,70.4,73.5,71.4,73.1,72.1z"/>
<path class="st0" d="M42.9,91.1c-0.1,0.2-0.4,0.2-0.6,0.1c0,0-0.1-0.1-0.1-0.1c-1.8-2.5-3.1-5.1-4.6-7.6c-1-1.7-1.9-3.4-3-5
	c-0.5-0.7-0.6-1.6-0.4-2.5c0.7-4.3,1.4-8.5,2.2-12.8c0.3-2,0.3-2,2.4-2c2.7,0,5.5,0,8.2,0c1,0,1.5,0.3,1.7,1.3
	c0.3,2.2,0.7,4.4,1.1,6.6s0.7,4.4,1.1,6.6c0.3,1,0.1,2.1-0.4,3c-2.3,3.9-3.9,6.6-6.2,10.5C44,89.4,43.2,90.8,42.9,91.1z"/>
<path class="st1" d="M26.9,14.8c-0.2-6.8,5.2-13,12-14.4c7.7-1.8,15.5,2.5,18.2,10c1.3,3.8,0.9,8-1.1,11.4c-3,5.3-7.2,9.6-11.4,13.9
	c-0.7,0.7-1.4,1.9-2.2,1.9s-1.5-1.2-2.2-1.8c-3.8-3.6-7.3-7.6-10.3-11.9C28.1,21,26.7,18.2,26.9,14.8z M42.2,6.5
	c-6.7,0-10.8,6.5-7.8,12.3c1.9,3.5,4.5,6.4,7.2,9.3c0.5,0.6,0.8,0.3,1.2-0.1c2.3-2.3,4.5-4.9,6.3-7.6c1-1.4,1.7-3.1,1.9-4.8
	c0.3-4.7-3.2-8.8-8-9.1C42.9,6.5,42.6,6.5,42.2,6.5z"/>
<path class="st2" d="M84.5,32.4c-0.1,7.5-1.3,14.9-3.7,22c-1,2.8-2,5.7-3.1,8.5c-0.4,0.9-0.7,1-1.6,0.5c-1.9-1.3-3.9-2.3-6-3.2
	c-0.8-0.3-0.6-0.7-0.3-1.3c2.1-4.8,3.7-9.9,4.7-15.1c0.7-2.9,1-5.9,1-8.9c0-0.7-0.2-1-0.9-1.2c-2.3-0.5-4.7-1-7-1.4
	c-3.1-0.5-6.2-0.9-9.4-1.3c-0.6-0.1-0.8-0.2-0.4-0.8c1.6-2.1,2.9-4.4,4-6.8c0.2-0.5,0.5-0.5,1.1-0.5c6.8,0.8,13.4,2.2,20,4
	c1,0.3,1.6,0.7,1.4,1.8S84.5,31.2,84.5,32.4z"/>
<path class="st2" d="M9.1,35.4c0.1,5.5,1.4,10.5,2.8,15.4c0.6,2.3,1.6,4.4,2.4,6.7c0.2,0.6,0.3,0.9-0.6,1.2
	c-2.2,0.6-4.4,1.5-6.5,2.3C6.5,61,6.3,61,6,60.4c-1.7-3.9-3-8-3.9-12.1c-1.5-5.9-2.2-12-2.1-18.1c0.1-3,0.2-3.1,3.2-3.7
	c3.4-0.7,6.8-1.7,10.3-2.2c2.8-0.5,5.5-0.9,8.3-1.4c0.3-0.1,0.7,0.1,0.8,0.5c1.1,2.5,2.5,4.9,4.2,7c0.3,0.4,0.2,0.6-0.4,0.7
	c-3,0.3-6,0.9-9,1.2c-2.5,0.3-4.9,1.1-7.4,1.5C8.6,33.9,9.1,34.9,9.1,35.4z"/>
<path class="st2" d="M42.2,54.2c-1-0.1-1.9-0.1-2.9,0c-1.1,0.1-1.3-0.4-1.1-1.3c0-0.1,0-0.3,0.1-0.4c1.2-2.9,0.1-5.5-1.3-8
	s-1.5-2.1,1-3.6c3.7-2.3,7-1.4,10.2,1.1c0.5,0.4,0.4,0.7,0.1,1.2c-0.8,1.5-1.5,2.9-2.3,4.4c-0.7,1.3,0,2.6,0,4
	c0,0.1,0.2,0.2,0.2,0.4c0.5,2.2,0.4,2.3-1.9,2.3C43.6,54.3,42.9,54.3,42.2,54.2L42.2,54.2z"/>
<path class="st2" d="M46,16.4c0,2-1.7,3.6-3.7,3.6c0,0,0,0,0,0c-2,0-3.6-1.7-3.7-3.7c0-2,1.7-3.7,3.8-3.7S46,14.4,46,16.4L46,16.4
	L46,16.4z"/>
<g>
	<path d="M116.8,36.4v40.5h-6V36.4H116.8z"/>
	<path d="M127.7,55.7c0-3-0.1-5.5-0.3-7.9h5.3l0.3,4.7h0.2c1.9-2.8,4.9-5.3,10.4-5.3c4.5,0,8,2.4,9.4,5.8h0.1c1-1.6,2.3-2.9,3.7-3.8
		c2-1.3,4.2-2,7.3-2c4.4,0,10.9,2.5,10.9,12.6v17.1h-5.9V60.4c0-5.6-2.3-9-7.2-9c-3.4,0-6.1,2.2-7.1,4.8c-0.3,0.7-0.5,1.7-0.5,2.6
		v18h-5.9V59.4c0-4.6-2.3-8-6.9-8c-3.8,0-6.5,2.6-7.5,5.3c-0.3,0.8-0.5,1.7-0.5,2.6v17.5h-5.9V55.7z"/>
	<path d="M185,57.3c0-3.7-0.1-6.7-0.3-9.5h5.4l0.3,5h0.1c2.5-3.5,6.4-5.7,11.8-5.7c8,0,14.1,6,14.1,14.8c0,10.5-7.3,15.6-15.1,15.6
		c-4.4,0-8.2-1.7-10.2-4.6H191v15.8h-6V57.3z M191,65c0,0.8,0.1,1.5,0.3,2.2c1.1,3.7,4.7,6.2,9.1,6.2c6.4,0,10.1-4.6,10.1-11.2
		c0-5.8-3.5-10.8-9.9-10.8c-4.1,0-8,2.6-9.1,6.6c-0.2,0.7-0.4,1.4-0.4,2.2V65z"/>
	<path d="M224,34.2h6v18.1h0.1c1-1.5,2.5-2.8,4.3-3.7c1.8-0.9,3.9-1.5,6.2-1.5c4.5,0,11.6,2.4,11.6,12.4v17.3h-6V60.2
		c0-4.7-2-8.7-7.7-8.7c-3.9,0-7,2.4-8.1,5.3c-0.3,0.7-0.4,1.5-0.4,2.5v17.5h-6V34.2z"/>
	<path d="M268.9,39.6c0.1,1.8-1.4,3.2-3.8,3.2c-2.1,0-3.6-1.4-3.6-3.2c0-1.9,1.6-3.3,3.8-3.3C267.4,36.3,268.9,37.8,268.9,39.6z
		 M262.2,76.9V47.8h6v29.1H262.2z"/>
	<path d="M278.2,56.9c0-3.4-0.1-6.4-0.3-9.1h5.3l0.2,5.7h0.3c1.5-3.9,5.1-6.4,9.2-6.4c0.7,0,1.2,0.1,1.7,0.2v5
		c-0.6-0.1-1.2-0.2-2.1-0.2c-4.3,0-7.3,2.8-8.1,6.8c-0.1,0.7-0.3,1.6-0.3,2.5v15.5h-6V56.9z"/>
	<path d="M303.3,63.3c0.1,7.2,5.4,10.1,11.4,10.1c4.3,0,6.9-0.7,9.2-1.5l1,3.8c-2.1,0.8-5.8,1.8-11.1,1.8
		c-10.2,0-16.3-5.9-16.3-14.7s5.9-15.7,15.6-15.7c10.8,0,13.7,8.4,13.7,13.7c0,1.1-0.1,1.9-0.2,2.5H303.3z M321.1,59.5
		c0.1-3.4-1.6-8.6-8.4-8.6c-6.1,0-8.8,4.9-9.3,8.6H321.1z"/>
</g>
</svg>
